<?xml version="1.0" encoding="utf-8"?><!-- Generator: Adobe Illustrator 16.0.0, SVG Export Plug-In . SVG Version: 6.00 Build 0)  --><!DOCTYPE svg PUBLIC "-//W3C//DTD SVG 1.1//EN" "http://www.w3.org/Graphics/SVG/1.1/DTD/svg11.dtd"><svg id="Camada_1" data-name="Camada_1 1" xmlns="http://www.w3.org/2000/svg" viewBox="0 0 1087.475 1538"><rect id="1" x="373.769" y="59.421" fill="none" stroke="#C3C3C3" stroke-miterlimit="10" width="379.07" height="34.744"/><rect id="2" x="771.507" y="59.421" fill="none" stroke="#80A7E4" stroke-miterlimit="10" width="10.025" height="34.744"/><rect id="3" x="781.532" y="59.421" fill="none" stroke="#80A7E4" stroke-miterlimit="10" width="10.025" height="34.744"/><rect id="4" x="791.558" y="59.421" fill="none" stroke="#80A7E4" stroke-miterlimit="10" width="10.026" height="34.744"/><rect id="5" x="801.584" y="59.421" fill="none" stroke="#80A7E4" stroke-miterlimit="10" width="10.025" height="34.744"/><rect id="6" x="811.609" y="59.421" fill="none" stroke="#80A7E4" stroke-miterlimit="10" width="10.025" height="34.744"/><rectid="7"x="821.635"y="59.421"fill="none"stroke="#80A7E4"stroke-miterlimit="10"width="10.025"eight="34.744"><rect id="8" x="752.839" y="59.421" fill="none" stroke="#000000" stroke-miterlimit="10" width="18.668" height="34.744"/><rect id="9" x="939" y="183" fill="none" stroke="#000000" stroke-miterlimit="10" width="45" height="467"/><rect id="10" x="880.852" y="276.5" fill="none" stroke="#FF7F27" stroke-miterlimit="10" width="52.299" height="14.349"/><rect id="11" x="880.852" y="352.333" fill="none" stroke="#FF7F27" stroke-miterlimit="10" width="52.299" height="14.349"/><rect id="12" x="880.852" y="366.683" fill="none" stroke="#FF7F27" stroke-miterlimit="10" width="52.299" height="14.349"/><rect id="13" x="880.852" y="431.983" fill="none" stroke="#FF7F27" stroke-miterlimit="10" width="52.299" height="14.349"/><rect id="14" x="880.852" y="446.333" fill="none" stroke="#FF7F27" stroke-miterlimit="10" width="52.299" height="14.349"/><rect id="15" x="880.852" y="504.649" fill="none" stroke="#FF7F27" stroke-miterlimit="10" width="52.299" height="14.349"/><rect id="16" x="880.852" y="518.999" fill="none" stroke="#FF7F27" stroke-miterlimit="10" width="52.299" height="14.349"/><rect id="17" x="880.852" y="574.316" fill="none" stroke="#FF7F27" stroke-miterlimit="10" width="52.299" height="14.349"/><rect id="18" x="880.852" y="588.666" fill="none" stroke="#FF7F27" stroke-miterlimit="10" width="52.299" height="14.349"/><rect id="19" x="880.852" y="650" fill="none" stroke="#FF7F27" stroke-miterlimit="10" width="52.299" height="14.349"/><rect id="20" x="861.5" y="635.651" fill="none" stroke="#FF7F27" stroke-miterlimit="10" width="19.352" height="28.698"/><rect id="21" x="880.852" y="635.651" fill="none" stroke="#FF7F27" stroke-miterlimit="10" width="52.299" height="14.349"/><rect id="22" x="861.5" y="574.316" fill="none" stroke="#FF7F27" stroke-miterlimit="10" width="19.352" height="28.698"/><rect id="23" x="861.5" y="504.649" fill="none" stroke="#FF7F27" stroke-miterlimit="10" width="19.352" height="28.698"/><rect id="24" x="861.5" y="431.983" fill="none" stroke="#FF7F27" stroke-miterlimit="10" width="19.352" height="28.698"/><rect id="25" x="861.5" y="352.333" fill="none" stroke="#FF7F27" stroke-miterlimit="10" width="19.352" height="28.698"/><rect id="26" x="880.852" y="290.849" fill="none" stroke="#FF7F27" stroke-miterlimit="10" width="52.299" height="14.349"/><rect id="27" x="861.5" y="276.5" fill="none" stroke="#FF7F27" stroke-miterlimit="10" width="19.352" height="28.698"/><rect id="28" x="880.852" y="216.097" fill="none" stroke="#FF7F27" stroke-miterlimit="10" width="52.299" height="14.349"/><rect id="29" x="880.852" y="201.748" fill="none" stroke="#FF7F27" stroke-miterlimit="10" width="52.299" height="14.349"/><rect id="30" x="862.727" y="201.748" fill="none" stroke="#FF7F27" stroke-miterlimit="10" width="18.125" height="28.698"/><rect id="31" x="591" y="776" fill="none" stroke="#C3C3C3" stroke-miterlimit="10" width="199.5" height="33"/><rect id="32" x="790.5" y="776" fill="none" stroke="#7FA6E1" stroke-miterlimit="10" width="10.625" height="33"/><rect id="33" x="801.125" y="776" fill="none" stroke="#7FA6E1" stroke-miterlimit="10" width="10.625" height="33"/><rect id="34" x="566.142" y="776" fill="none" stroke="#FF7F00" stroke-miterlimit="10" width="24.858" height="33"/><rect id="35" x="546.009" y="776" fill="none" stroke="#FF7F00" stroke-miterlimit="10" width="20.133" height="33"/><rect id="36" x="538" y="810.5" fill="none" stroke="#FF7F00" stroke-miterlimit="10" width="8.009" height="8.25"/><rect id="37" x="493.616" y="808.238" fill="none" stroke="#FF7F00" stroke-miterlimit="10" width="23.097" height="10.512"/><rect id="38" x="493.616" y="818.75" fill="none" stroke="#FF7F00" stroke-miterlimit="10" width="23.097" height="10.512"/><rect id="39" x="493.616" y="829.554" fill="none" stroke="#FF7F00" stroke-miterlimit="10" width="23.097" height="10.512"/><rect id="40" x="493.616" y="840.118" fill="none" stroke="#C3C3C3" stroke-miterlimit="10" width="23.097" height="282.216"/><rect id="41" x="268" y="1115.667" fill="none" stroke="#C3C3C3" stroke-miterlimit="10" width="196.883" height="26.333"/><rect id="42" x="539.707" y="834.81" fill="none" stroke="#FF7F00" stroke-miterlimit="10" width="6.302" height="21.129"/><rect id="43" x="539.707" y="865.7" fill="none" stroke="#FF7F00" stroke-miterlimit="10" width="6.302" height="13.716"/><rect id="44" x="518.871" y="1155.496" fill="none" stroke="#C3C3C3" stroke-miterlimit="10" width="25.866" height="202.931"/><rect id="45" x="518.871" y="1358.427" fill="none" stroke="#7EA6E1" stroke-miterlimit="10" width="27.356" height="55.03"/><rect id="46" x="503.75" y="1439" fill="none" stroke="#7EA6E1" stroke-miterlimit="10" width="11" height="13"/><rect id="47" x="366.5" y="1439" fill="none" stroke="#C6C6C6" stroke-miterlimit="10" width="137.25" height="13"/><rect id="48" x="254.75" y="1439" fill="none" stroke="#C6C6C6" stroke-miterlimit="10" width="76.5" height="13"/><rect id="49" x="254.75" y="1334" fill="none" stroke="#7EA6E1" stroke-miterlimit="10" width="11.5" height="65"/><rect id="50" x="254.75" y="1180.5" fill="none" stroke="#7EA6E1" stroke-miterlimit="10" width="11.5" height="153.5"/><rect id="51" x="254.75" y="998.335" fill="none" stroke="#7EA6E1" stroke-miterlimit="10" width="11.5" height="103.831"/><rect id="52" x="254.75" y="809" fill="none" stroke="#7EA6E1" stroke-miterlimit="10" width="11.5" height="189.335"/><rect id="53" x="254.696" y="652.558" fill="none" stroke="#D06402" stroke-miterlimit="10" width="12.52" height="62.919"/><rect id="54" x="254.696" y="581.613" fill="none" stroke="#D06402" stroke-miterlimit="10" width="12.52" height="70.945"/><rect id="55" x="254.696" y="558.5" fill="none" stroke="#EB6864" stroke-miterlimit="10" width="12.52" height="23.113"/><rect id="56" x="280.866" y="514.721" fill="none" stroke="#FE7B00" stroke-miterlimit="10" width="13.691" height="8.7"/><rect id="57" x="294.557" y="514.721" fill="none" stroke="#7993C4" stroke-miterlimit="10" width="13.691" height="8.7"/><rect id="58" x="308.248" y="514.721" fill="none" stroke="#7993C4" stroke-miterlimit="10" width="13.691" height="8.7"/><rect id="59" x="321.939" y="514.721" fill="none" stroke="#FE7B00" stroke-miterlimit="10" width="13.691" height="8.7"/><rect id="60" x="358.138" y="518.513" fill="none" stroke="#E66B65" stroke-miterlimit="10" width="10.049" height="8.828"/><rect id="61" x="350.934" y="121.609" fill="none" stroke="#AAAAAA" stroke-miterlimit="10" width="18.559" height="395.356"/><polygon id="62" fill="none" stroke="#ED1C24" stroke-miterlimit="10" points="428.937,1295.398 432.055,1301.717 439.026,1302.729 	433.981,1307.647 435.173,1314.591 428.937,1311.313 422.7,1314.591 423.892,1307.647 418.847,1302.729 425.818,1301.717 "/><polygon id="63" fill="none" stroke="#ED1C24" stroke-miterlimit="10" points="274.511,1407.237 277.629,1413.556 284.601,1414.568 	279.556,1419.486 280.747,1426.43 274.511,1423.151 268.274,1426.43 269.466,1419.486 264.421,1414.568 271.393,1413.556 "/><polygon id="64" fill="none" stroke="#ED1C24" stroke-miterlimit="10" points="483.084,1400.785 486.202,1407.104 493.174,1408.116 	488.129,1413.034 489.32,1419.978 483.084,1416.699 476.848,1419.978 478.039,1413.034 472.994,1408.116 479.966,1407.104 "/><polygon id="65" fill="none" stroke="#ED1C24" stroke-miterlimit="10" points="593.088,115.767 596.207,122.085 603.178,123.098 	598.133,128.016 599.324,134.959 593.088,131.681 586.853,134.959 588.043,128.016 582.998,123.098 589.971,122.085 "/><polygon id="66" fill="none" stroke="#ED1C24" stroke-miterlimit="10" points="372.77,99.435 375.887,105.753 382.859,106.766 	377.814,111.684 379.005,118.627 372.77,115.349 366.533,118.627 367.725,111.684 362.68,106.766 369.65,105.753 "/><polygon id="67" fill="none" stroke="#ED1C24" stroke-miterlimit="10" points="962.723,97.886 962.723,126.553 996.756,126.553 	996.756,140.816 1030.93,112.008 996.826,84.047 996.826,98.028 "/><polygon id="68" fill="none" stroke="#CC6601" stroke-miterlimit="10" points="391.195,121.609 391.195,138.919 403.27,138.919 	403.27,141.544 409.175,141.544 409.175,138.919 432.808,138.919 432.798,141.544 438.659,141.544 438.659,138.919 450.384,138.919 	450.384,121.609 "/><polygon id="69" fill="none" stroke="#CC6601" stroke-miterlimit="10" points="288.311,550.742 288.311,568.052 294.161,568.052 	294.161,570.676 297.346,570.676 297.346,568.052 309.026,568.052 309.026,570.676 312.425,570.676 312.422,568.047 	317.904,568.052 317.904,550.742 "/><polygon id="70" fill="none" stroke="#CC6601" stroke-miterlimit="10" points="343.341,550.742 343.341,568.052 349.191,568.052 	349.191,570.676 352.377,570.676 352.377,568.052 364.057,568.052 364.057,570.676 367.455,570.676 367.452,568.047 	372.935,568.052 372.935,550.742 "/><polygon id="71" fill="none" stroke="#CC6601" stroke-miterlimit="10" points="324.838,656.5 342.148,656.5 342.148,650.649 	344.773,650.649 344.773,647.464 342.148,647.464 342.148,635.784 344.773,635.784 344.773,632.386 342.144,632.389 	342.148,626.906 324.838,626.906 "/><polygon id="72" fill="none" stroke="#CC6601" stroke-miterlimit="10" points="343.842,698.667 343.842,715.978 349.692,715.978 	349.692,718.603 352.878,718.603 352.878,715.978 364.558,715.978 364.558,718.603 367.956,718.603 367.953,715.973 	373.436,715.978 373.436,698.667 "/><polygon id="73" fill="none" stroke="#CC6601" stroke-miterlimit="10" points="432.381,1227.143 432.381,1216.889 428.915,1216.889 	428.915,1215.333 427.027,1215.333 427.027,1216.889 420.108,1216.889 420.108,1215.333 418.096,1215.333 418.098,1216.892 	414.85,1216.889 414.85,1227.143 "/><polygon id="74" fill="none" stroke="#CC6601" stroke-miterlimit="10" points="487.048,1378.31 487.048,1368.056 483.582,1368.056 	483.582,1366.5 481.694,1366.5 481.694,1368.056 474.775,1368.056 474.775,1366.5 472.763,1366.5 472.765,1368.059 	469.517,1368.056 469.517,1378.31 "/><polygon id="75" fill="none" stroke="#CC6601" stroke-miterlimit="10" points="288.342,698.667 288.342,715.978 294.192,715.978 	294.192,718.603 297.378,718.603 297.378,715.978 309.058,715.978 309.058,718.603 312.456,718.603 312.453,715.973 	317.936,715.978 317.936,698.667 "/><ellipse id="76" fill="none" stroke="#E71A22" stroke-miterlimit="10" cx="495" cy="127.55" rx="12.333" ry="11.784"/><ellipse id="77" fill="none" stroke="#E71A22" stroke-miterlimit="10" cx="548.191" cy="127.55" rx="12.333" ry="11.784"/><ellipse id="78" fill="none" stroke="#E71A22" stroke-miterlimit="10" cx="632.985" cy="127.55" rx="12.333" ry="11.784"/><ellipse id="79" fill="none" stroke="#E71A22" stroke-miterlimit="10" cx="674.765" cy="127.55" rx="12.333" ry="11.784"/><rect id="80" x="701.172" y="114.659" fill="none" stroke="#A349A4" stroke-miterlimit="10" width="28.353" height="28.735"/><rect id="81" x="749.679" y="94.165" fill="none" stroke="#A349A4" stroke-miterlimit="10" width="23.321" height="16.335"/><rect id="82" x="403.5" y="180" fill="none" stroke="#C3C3C3" stroke-miterlimit="10" width="29.75" height="63.5"/><rect id="83" x="403.5" y="280.75" fill="none" stroke="#C3C3C3" stroke-miterlimit="10" width="29.75" height="63.5"/><rect id="84" x="403.5" y="380.25" fill="none" stroke="#C3C3C3" stroke-miterlimit="10" width="29.75" height="63.5"/><rect id="85" x="403.5" y="478.5" fill="none" stroke="#C3C3C3" stroke-miterlimit="10" width="29.75" height="63.715"/><rect id="86" x="403.5" y="579" fill="none" stroke="#C3C3C3" stroke-miterlimit="10" width="29.75" height="63.5"/><rect id="87" x="403.5" y="678" fill="none" stroke="#C3C3C3" stroke-miterlimit="10" width="29.75" height="63.5"/><rect id="88" x="545.649" y="678" fill="none" stroke="#C3C3C3" stroke-miterlimit="10" width="29.75" height="63.5"/><rect id="89" x="433.25" y="678" fill="none" stroke="#C3C3C3" stroke-miterlimit="10" width="112.759" height="31.75"/><rect id="90" x="433.25" y="709.75" fill="none" stroke="#C3C3C3" stroke-miterlimit="10" width="112.759" height="31.75"/><rect id="91" x="545.649" y="579" fill="none" stroke="#C3C3C3" stroke-miterlimit="10" width="29.75" height="63.5"/><rect id="92" x="433.25" y="579" fill="none" stroke="#C3C3C3" stroke-miterlimit="10" width="112.399" height="31.75"/><rect id="93" x="433.25" y="610.75" fill="none" stroke="#C3C3C3" stroke-miterlimit="10" width="112.399" height="31.75"/><rect id="94" x="545.649" y="478.5" fill="none" stroke="#C3C3C3" stroke-miterlimit="10" width="29.75" height="63.715"/><rect id="95" x="601.989" y="478.5" fill="none" stroke="#C3C3C3" stroke-miterlimit="10" width="29.75" height="63.5"/><rect id="96" x="433.25" y="478.5" fill="none" stroke="#C3C3C3" stroke-miterlimit="10" width="112.399" height="31.75"/><rect id="97" x="433.25" y="510.465" fill="none" stroke="#C3C3C3" stroke-miterlimit="10" width="112.399" height="31.75"/><rect id="98" x="545.649" y="380.25" fill="none" stroke="#C3C3C3" stroke-miterlimit="10" width="29.75" height="63.5"/><rect id="99" x="433.25" y="380.25" fill="none" stroke="#C3C3C3" stroke-miterlimit="10" width="112.399" height="63.5"/><rect id="100" x="545.649" y="280.75" fill="none" stroke="#C3C3C3" stroke-miterlimit="10" width="29.75" height="63.5"/><rect id="101" x="433.25" y="280.75" fill="none" stroke="#C3C3C3" stroke-miterlimit="10" width="112.399" height="31.75"/><rect id="102" x="433.25" y="312.5" fill="none" stroke="#C3C3C3" stroke-miterlimit="10" width="112.399" height="31.75"/><rect id="103" x="545.649" y="180" fill="none" stroke="#C3C3C3" stroke-miterlimit="10" width="29.75" height="63.5"/><rect id="104" x="602.5" y="180" fill="none" stroke="#C3C3C3" stroke-miterlimit="10" width="29.75" height="63.5"/><rect id="105" x="602.5" y="280.75" fill="none" stroke="#C3C3C3" stroke-miterlimit="10" width="29.75" height="63.5"/><rect id="106" x="603.5" y="380.25" fill="none" stroke="#C3C3C3" stroke-miterlimit="10" width="29.75" height="63.5"/><rect id="107" x="602.5" y="579" fill="none" stroke="#C3C3C3" stroke-miterlimit="10" width="29.75" height="63.5"/><rect id="108" x="602.5" y="678" fill="none" stroke="#C3C3C3" stroke-miterlimit="10" width="29.75" height="63.5"/><rect id="109" x="744.5" y="678" fill="none" stroke="#C3C3C3" stroke-miterlimit="10" width="29.75" height="63.5"/><rect id="110" x="632.25" y="678" fill="none" stroke="#C3C3C3" stroke-miterlimit="10" width="112.25" height="31.75"/><rect id="111" x="632.25" y="709.75" fill="none" stroke="#C3C3C3" stroke-miterlimit="10" width="112.25" height="31.75"/><rect id="112" x="742.726" y="579" fill="none" stroke="#C3C3C3" stroke-miterlimit="10" width="29.75" height="63.5"/><rect id="113" x="632.25" y="579" fill="none" stroke="#C3C3C3" stroke-miterlimit="10" width="110.476" height="31.75"/><rect id="114" x="632.25" y="610.75" fill="none" stroke="#C3C3C3" stroke-miterlimit="10" width="110.476" height="31.75"/><rect id="115" x="742.726" y="478.823" fill="none" stroke="#C3C3C3" stroke-miterlimit="10" width="29.75" height="63.5"/><rect id="116" x="632.25" y="478.5" fill="none" stroke="#C3C3C3" stroke-miterlimit="10" width="110.476" height="31.965"/><rect id="117" x="632.25" y="510.358" fill="none" stroke="#C3C3C3" stroke-miterlimit="10" width="110.476" height="31.965"/><rect id="118" x="742.726" y="380.25" fill="none" stroke="#C3C3C3" stroke-miterlimit="10" width="29.75" height="63.5"/><rect id="119" x="632.985" y="380.25" fill="none" stroke="#C3C3C3" stroke-miterlimit="10" width="109.74" height="31.75"/><rect id="120" x="632.985" y="412" fill="none" stroke="#C3C3C3" stroke-miterlimit="10" width="109.74" height="31.75"/><rect id="121" x="742.726" y="280.75" fill="none" stroke="#C3C3C3" stroke-miterlimit="10" width="29.75" height="63.5"/><rect id="122" x="632.985" y="280.75" fill="none" stroke="#C3C3C3" stroke-miterlimit="10" width="109.74" height="31.75"/><rect id="123" x="632.985" y="312.5" fill="none" stroke="#C3C3C3" stroke-miterlimit="10" width="109.74" height="31.75"/><rect id="124" x="744.5" y="180" fill="none" stroke="#C3C3C3" stroke-miterlimit="10" width="29.75" height="63.5"/><rect id="125" x="632.985" y="180" fill="none" stroke="#C3C3C3" stroke-miterlimit="10" width="111.414" height="31.75"/><rect id="126" x="632.985" y="211.75" fill="none" stroke="#C3C3C3" stroke-miterlimit="10" width="111.414" height="31.75"/><rect id="127" x="433.25" y="180" fill="none" stroke="#C3C3C3" stroke-miterlimit="10" width="112.399" height="31.75"/><rect id="128" x="433.25" y="211.75" fill="none" stroke="#C3C3C3" stroke-miterlimit="10" width="112.399" height="31.75"/><rect id="129" x="556.665" y="243.5" fill="none" stroke="#22B14D" stroke-miterlimit="10" width="18.726" height="16.38"/><ellipse id="130" fill="none" stroke="#EC1B23" stroke-miterlimit="10" cx="303.174" cy="801.198" rx="12.575" ry="11.934"/><ellipse id="131" fill="none" stroke="#EC1B23" stroke-miterlimit="10" cx="355.804" cy="801.198" rx="12.575" ry="11.934"/><ellipse id="132" fill="none" stroke="#EC1B23" stroke-miterlimit="10" cx="400.986" cy="801.198" rx="12.575" ry="11.934"/><ellipse id="133" fill="none" stroke="#EC1B23" stroke-miterlimit="10" cx="448.451" cy="801.198" rx="12.575" ry="11.934"/><ellipse id="134" fill="none" stroke="#EC1B23" stroke-miterlimit="10" cx="351.867" cy="1405.237" rx="12.575" ry="11.934"/><ellipse id="135" fill="none" stroke="#EC1B23" stroke-miterlimit="10" cx="389.881" cy="1405.237" rx="12.575" ry="11.934"/><ellipse id="136" fill="none" stroke="#EC1B23" stroke-miterlimit="10" cx="428.909" cy="1405.237" rx="12.575" ry="11.934"/><rect id="137" x="420.601" y="821.873" fill="none" stroke="#C3C3C3" stroke-miterlimit="10" width="45.516" height="15.066"/><rect id="138" x="353.069" y="821.873" fill="none" stroke="#C3C3C3" stroke-miterlimit="10" width="45.516" height="15.066"/><rect id="139" x="284.122" y="821.873" fill="none" stroke="#C3C3C3" stroke-miterlimit="10" width="45.516" height="15.066"/><rect id="140" x="284.122" y="900.62" fill="none" stroke="#C3C3C3" stroke-miterlimit="10" width="45.516" height="15.066"/><rect id="141" x="284.122" y="836.939" fill="none" stroke="#C3C3C3" stroke-miterlimit="10" width="45.516" height="63.681"/><rect id="142" x="353.069" y="900.477" fill="none" stroke="#C3C3C3" stroke-miterlimit="10" width="45.516" height="15.066"/><rect id="143" x="353.069" y="836.939" fill="none" stroke="#C3C3C3" stroke-miterlimit="10" width="45.516" height="63.681"/><rect id="144" x="420.601" y="900.62" fill="none" stroke="#C3C3C3" stroke-miterlimit="10" width="45.516" height="15.066"/><rect id="145" x="420.601" y="836.939" fill="none" stroke="#C3C3C3" stroke-miterlimit="10" width="45.516" height="63.681"/><rect id="146" x="329.77" y="836.795" fill="none" stroke="#21B14A" stroke-miterlimit="10" width="17.398" height="25.162"/><rect id="147" x="303.25" y="920.75" fill="none" stroke="#00A3E8" stroke-miterlimit="10" width="59.25" height="22.75"/><rect id="148" x="303.25" y="1017.5" fill="none" stroke="#00A3E8" stroke-miterlimit="10" width="59.25" height="22.75"/><rect id="149" x="404.625" y="1017.5" fill="none" stroke="#00A3E8" stroke-miterlimit="10" width="59.25" height="22.75"/><rect id="150" x="405.75" y="920.75" fill="none" stroke="#00A3E8" stroke-miterlimit="10" width="59.25" height="22.75"/><rect id="151" x="302" y="979.25" fill="none" stroke="#00A3E8" stroke-miterlimit="10" width="61.5" height="22.75"/><rect id="152" x="302" y="1076" fill="none" stroke="#00A3E8" stroke-miterlimit="10" width="61.5" height="22.75"/><rect id="153" x="403.5" y="1076" fill="none" stroke="#00A3E8" stroke-miterlimit="10" width="61.5" height="22.75"/><rect id="154" x="404.625" y="979.25" fill="none" stroke="#00A3E8" stroke-miterlimit="10" width="61.5" height="22.75"/><rect id="155" x="311" y="943.5" fill="none" stroke="#00A3E8" stroke-miterlimit="10" width="43.75" height="35.75"/><rect id="156" x="311" y="1040.25" fill="none" stroke="#00A3E8" stroke-miterlimit="10" width="43.75" height="35.75"/><rect id="157" x="412.375" y="1040.25" fill="none" stroke="#00A3E8" stroke-miterlimit="10" width="43.75" height="35.75"/><rect id="158" x="413.5" y="943.5" fill="none" stroke="#00A3E8" stroke-miterlimit="10" width="43.75" height="35.75"/><rect id="159" x="344.154" y="1146.999" fill="none" stroke="#E86B65" stroke-miterlimit="10" width="34.168" height="12.618"/><rect id="160" x="293.54" y="1146.999" fill="none" stroke="#7EA6E0" stroke-miterlimit="10" width="24.244" height="12.618"/><rect id="161" x="382.575" y="1146.999" fill="none" stroke="#E86B65" stroke-miterlimit="10" width="42.816" height="12.618"/><rect id="162" x="414.053" y="1267.882" fill="none" stroke="#B0FD5F" stroke-miterlimit="10" width="23.339" height="12.618"/><rect id="163" x="455.387" y="1186.023" fill="none" stroke="#C3C3C3" stroke-miterlimit="10" width="48.613" height="17.978"/><rect id="164" x="455.387" y="1320.023" fill="none" stroke="#C3C3C3" stroke-miterlimit="10" width="48.613" height="17.978"/><rect id="165" x="455.387" y="1204.001" fill="none" stroke="#C3C3C3" stroke-miterlimit="10" width="48.613" height="116.022"/><rect id="166" x="301.962" y="1219.935" transform="matrix(0.9869 0.1613 -0.1613 0.9869 202.9533 -39.7523)" fill="none" stroke="#B0FD5F" stroke-miterlimit="10" width="88.68" height="20.262"/><rect id="167" x="285.654" y="1285.267" transform="matrix(0.9869 0.1613 -0.1613 0.9869 213.2783 -36.2661)" fill="none" stroke="#B0FD5F" stroke-miterlimit="10" width="88.68" height="20.262"/><rect id="168" x="424.235" y="1348.578" fill="none" stroke="#EB6A65" stroke-miterlimit="10" width="17.248" height="23.48"/><rect id="169" x="290.25" y="1350.578" fill="none" stroke="#EB6A65" stroke-miterlimit="10" width="14.25" height="29.422"/><rect id="170" x="309.75" y="1334.867" fill="none" stroke="#EB6A65" stroke-miterlimit="10" width="20.244" height="29.422"/><rect id="171" x="314" y="1364.289" fill="none" stroke="#FF7F00" stroke-miterlimit="10" width="12.073" height="11.378"/><rect id="172" x="290.25" y="1394.078" fill="none" stroke="#EB6A65" stroke-miterlimit="10" width="24.75" height="17.922"/><g>	<rect id="173" x="512.816" y="66.535" fill="none" width="100.547" height="28.517"/>							</g><g>		</g><g>		</g><g>		</g><g>		</g><g>		</g><g>		</g><g>								</g><g>					</g><g>													</g><g>						</g><g>									</g><g>					</g><g>									</g><g>									</g><g>										</g><g>										</g><g>							</g><g>							</g><g>													</g><g>									</g><g>									</g><g>									</g><g>									</g><g>										</g><g>										</g><g>							</g><g>							</g><g>													</g><g>				</g><g>		</g><g>		</g><g>		</g><g>		</g><g>		</g><g>		</g><g>		</g><g>		</g><g>		</g><g>		</g><g>		</g><g>		</g><g>		</g><g>		</g><g>		</g><g>		</g><rect id="174" x="335.671" y="875.458" fill="none" stroke="#21B14A" stroke-miterlimit="10" width="17.398" height="25.162"/><g>		</g><rect id="175" x="403.202" y="875.525" fill="none" stroke="#21B14A" stroke-miterlimit="10" width="17.398" height="25.162"/><g>		</g><rect id="176" x="398.585" y="836.795" fill="none" stroke="#21B14A" stroke-miterlimit="10" width="17.398" height="25.162"/><g>		</g><g>		</g><g>		</g><g>		</g><g>		</g><g>		</g><g>							</g><g>							</g><g>							</g><g>							</g><g>							</g><g>									</g><g>															</g><g>		</g><g>		</g><g>		</g><g>		</g><g>		</g><g>		</g><g>		</g><g>		</g><g>		</g><g>		</g><g>		</g><g>		</g><g>		</g><g>		</g><g>		</g><g>		</g><g>		</g><g>		</g><g>	</g><g>	</g><g>	</g><g>	</g><g>	</g><g>	</g><g>	</g><g>	</g><g>	</g><g>	<rect id="177" x="559.741" y="247.223" fill="none" width="20.126" height="20.126"/>		</g><rect id="178" x="755.559" y="243.5" fill="none" stroke="#22B14D" stroke-miterlimit="10" width="18.726" height="16.38"/><g>	<rect id="179" x="758.635" y="247.223" fill="none" width="20.126" height="20.126"/>		</g><rect id="180" x="602.5" y="264.385" fill="none" stroke="#22B14D" stroke-miterlimit="10" width="18.726" height="16.38"/><g>	<rect id="181" x="605.576" y="268.108" fill="none" width="20.126" height="20.126"/>		</g><rect id="182" x="753.745" y="344.25" fill="none" stroke="#22B14D" stroke-miterlimit="10" width="18.726" height="16.38"/><g>	<rect id="183" x="756.821" y="347.973" fill="none" width="20.126" height="20.126"/>		</g><g>	<rect id="184" x="758.071" y="454.619" fill="none" width="20.126" height="20.126"/>		</g><polygon id="185" fill="none" stroke="#ED1C24" stroke-miterlimit="10" points="612.658,449.14 617.097,458.138 627.025,459.58 	619.841,466.583 621.538,476.471 612.658,471.803 603.775,476.471 605.473,466.583 598.288,459.58 608.217,458.138 "/><g>	<rect id="186" x="606.555" y="460.13" fill="none" width="20.126" height="20.126"/>		</g><rect id="187" x="603.5" y="363.848" fill="none" stroke="#22B14D" stroke-miterlimit="10" width="18.726" height="16.38"/><g>	<rect id="188" x="606.576" y="368.571" fill="none" width="20.126" height="20.126"/>		</g><rect id="189" x="602.5" y="562.604" fill="none" stroke="#22B14D" stroke-miterlimit="10" width="18.726" height="16.38"/><g>	<rect id="190" x="605.576" y="567.328" fill="none" width="20.126" height="20.126"/>		</g><rect id="191" x="753.759" y="642.5" fill="none" stroke="#22B14D" stroke-miterlimit="10" width="18.726" height="16.38"/><g>	<rect id="192" x="756.835" y="647.223" fill="none" width="20.126" height="20.126"/>		</g><rect id="193" x="602.5" y="661.623" fill="none" stroke="#22B14D" stroke-miterlimit="10" width="18.726" height="16.38"/><g>	<rect id="194" x="606.576" y="666.346" fill="none" width="20.126" height="20.126"/>		</g><rect id="195" x="403.5" y="661.623" fill="none" stroke="#22B14D" stroke-miterlimit="10" width="18.726" height="16.38"/><g>	<rect id="196" x="407.576" y="666.346" fill="none" width="20.126" height="20.126"/>		</g><rect id="197" x="556.681" y="642.5" fill="none" stroke="#22B14D" stroke-miterlimit="10" width="18.726" height="16.38"/><g>	<rect id="198" x="559.757" y="646.223" fill="none" width="20.126" height="20.126"/>		</g><rect id="199" x="403.5" y="562.625" fill="none" stroke="#22B14D" stroke-miterlimit="10" width="18.726" height="16.38"/><g>	<rect id="200" x="406.576" y="566.348" fill="none" width="20.126" height="20.126"/>		</g><rect id="201" x="556.672" y="542.215" fill="none" stroke="#22B14D" stroke-miterlimit="10" width="18.726" height="16.38"/><g>	<rect id="202" x="559.748" y="546.433" fill="none" width="20.126" height="20.126"/>		</g><rect id="203" x="556.656" y="443.75" fill="none" stroke="#22B14D" stroke-miterlimit="10" width="18.726" height="16.38"/><g>	<rect id="204" x="559.732" y="447.473" fill="none" width="20.126" height="20.126"/>		</g><rect id="205" x="556.672" y="344.25" fill="none" stroke="#22B14D" stroke-miterlimit="10" width="18.726" height="16.38"/><g>	<rect id="206" x="559.748" y="347.973" fill="none" width="20.126" height="20.126"/>		</g><rect id="207" x="403.5" y="363.87" fill="none" stroke="#22B14D" stroke-miterlimit="10" width="18.726" height="16.38"/><g>	<rect id="208" x="406.576" y="367.593" fill="none" width="20.126" height="20.126"/>		</g><rect id="209" x="403.5" y="462.12" fill="none" stroke="#22B14D" stroke-miterlimit="10" width="18.726" height="16.38"/><g>	<rect id="210" x="407.576" y="465.843" fill="none" width="20.126" height="20.126"/>		</g><rect id="211" x="753.736" y="542.323" fill="none" stroke="#22B14D" stroke-miterlimit="10" width="18.726" height="16.38"/><g>	<rect id="212" x="756.813" y="547.046" fill="none" width="20.126" height="20.126"/>		</g><rect id="213" x="403.5" y="264.38" fill="none" stroke="#22B14D" stroke-miterlimit="10" width="18.726" height="16.38"/><g>	<rect id="214" x="406.576" y="268.103" fill="none" width="20.126" height="20.126"/>		</g><g>						</g><g>		</g><g>		</g><g>		</g><g>		</g><g>		</g><g>		</g><g>		</g><g>		</g><g>		</g><g>		</g><g>		</g><g>		</g><g>		</g><g>		</g><g>		</g><g>		</g><g>		</g><g>		</g><g>		</g><g>		</g><g>		</g><g>											</g><g></g><polygon id="215" fill="none" stroke="#ED1C24" stroke-miterlimit="10" points="764.175,443.911 768.613,452.909 778.542,454.351 	771.357,461.354 773.055,471.242 764.175,466.574 755.292,471.242 756.989,461.354 749.805,454.351 759.733,452.909 "/></svg>